<?xml version="1.0" encoding="UTF-8"?>
<svg xmlns="http://www.w3.org/2000/svg" version="1.1" viewBox="0 0 138 147">
<style>.st0{fill:#ffffff}</style>
<path class="st0" d="M54.7 32.5 30.5 86.3h10.3L47 72.7h12.4v13.6h12.1V32.5H54.7zm4.8 28.9-7.2.1 7.2-15.9v15.8zM73.8 51.5l18.7-18.3h12.3L79.3 58l28.8 28.2H95.4L73.8 65.3zM109.6 88.3H28c-.2 0-.4-.2-.4-.4s.2-.4.4-.4h81.6c.2 0 .4.2.4.4s-.2.4-.4.4zM109.6 106.1H28c-.2 0-.4-.2-.4-.4s.2-.4.4-.4h81.6c.2 0 .4.2.4.4s-.2.4-.4.4zM26.4 90.3l-.1-.5.1-.1c1.1.1 1.9.1 2.5.1.2 0 1.1 0 2.6-.1h1.1c.8 0 1.5.1 2 .3.5.2.9.5 1.2.9.3.4.5.9.5 1.5 0 .7-.3 1.3-.8 1.9s-1.3 1-2.4 1.3c.7.1 1.2.2 1.7.3.4.1.8.3 1.1.5.3.2.6.6.8 1 .2.4.3.8.3 1.4 0 .4-.1.8-.2 1.2-.1.4-.4.8-.7 1.2-.3.4-.7.8-1.2 1.1-.5.3-1 .5-1.5.6-.5.1-1.1.2-1.9.2h-2.8c-.4 0-.9 0-1.6.1l-.1-.1v-.3l.1-.1.6-.3c.1-.1.1-.6.1-1.7 0-1 .1-1.8.1-2.4v-6.6c0-.3 0-.5-.1-.6 0-.1-.1-.2-.1-.3-.1 0-.1-.1-.2-.1s-.2-.1-.5-.1l-.6-.3zm3.4 4.9h1.1c1.3 0 2.2-.2 2.7-.7.5-.5.8-1.1.8-1.9 0-.5-.1-.9-.3-1.2-.2-.3-.5-.6-.9-.8-.4-.2-1-.3-1.7-.3-.6 0-1.1 0-1.5.1-.1.6-.1 1.5-.1 2.9v1.9zm0 6.9c.5.1 1 .2 1.5.2.9 0 1.6-.1 2.1-.4.5-.3.9-.7 1.1-1.2.2-.5.4-1.1.4-1.7 0-.9-.3-1.6-.8-2.2-.5-.5-1.6-.8-3.3-.8h-1v6.1zM38.2 103l-.1-.6.1-.1c.5 0 .8 0 .9-.1.1 0 .2-.1.4-.2.1-.1.3-.5.6-1.2l1-2.1 2.6-5.8c.5-1.1 1-2.3 1.4-3.4h.6l4 9.4.5 1.3c.2.4.3.7.5 1.2.2.4.3.7.4.7.1.1.2.1.3.2.1 0 .4.1.8.1l.1.1v.5l-.1.1c-.7-.1-1.3-.1-1.8-.1-1 0-2.1.1-3.1.1l-.1-.1v-.5l.1-.1c.7 0 1.1 0 1.3-.1.2 0 .3-.2.3-.3 0-.1 0-.3-.1-.5l-1.2-2.9h-5.4l-1 2.4c-.2.4-.3.7-.3.9 0 .2.1.3.3.3.2.1.6.1 1.3.1l.1.1v.5l-.1.1c-.8 0-1.5-.1-2.1-.1-.8.1-1.5.1-2.2.1zm4.3-5.2h4.8l-2.4-5.6-2.4 5.6zM53.2 89.8H56c.7 0 1.7 0 2.9-.1h1c1.6 0 2.7.3 3.2.9.6.6.8 1.3.8 2 0 .5-.1 1-.4 1.5-.3.5-.7.9-1.2 1.3s-1.3.6-2.2.8c.2.2.5.7.9 1.3l1.3 1.8c.4.6.9 1.2 1.4 1.8s.8 1 1 1.1c.1.1.3.1.4.2h.5l.1.1v.4l-.1.1c-.3 0-.7-.1-1.1-.1-.4 0-.9 0-1.5.1-.4-.5-1.1-1.4-2-2.7-1.1-1.5-2.2-2.9-3.3-4.2l.1-.3h.8c1.1 0 1.9-.3 2.5-.8.6-.5.9-1.2.9-2.2 0-.8-.3-1.4-.8-1.9-.6-.4-1.3-.6-2.2-.6-.7 0-1.3.1-1.9.3-.1.1-.1 1.3-.1 3.5v6.1c0 .7 0 1.2.1 1.4 0 .2.1.3.1.4.1.1.2.1.3.2.2 0 .6.1 1.2.1l.1.1v.5l-.1.1s-.6 0-1.7-.1h-1c-.2 0-1.1 0-2.7.1l-.1-.1v-.5l.1-.1c.6 0 1-.1 1.2-.1.2 0 .3-.1.4-.1.1-.1.1-.2.2-.4 0-.2.1-.6.1-1.3v-8.1c0-.7 0-1.2-.1-1.4 0-.2-.1-.3-.1-.4-.1-.1-.2-.1-.3-.2-.2 0-.6-.1-1.2-.1l-.1-.1v-.3zM66 90.3l-.1-.5.1-.1c1.1.1 1.9.1 2.5.1.2 0 1.1 0 2.6-.1h1.1c.8 0 1.5.1 2 .3.5.2.9.5 1.2.9.3.4.5.9.5 1.5 0 .7-.3 1.3-.8 1.9s-1.3 1-2.4 1.3c.7.1 1.2.2 1.7.3.4.1.8.3 1.1.5.3.2.6.6.8 1 .2.4.3.8.3 1.4 0 .4-.1.8-.2 1.2-.1.4-.4.8-.7 1.2-.3.4-.7.8-1.2 1.1-.5.3-1 .5-1.5.6-.5.1-1.1.2-1.9.2h-2.8c-.4 0-.9 0-1.6.1l-.1-.1v-.3l.1-.1.6-.3c.1-.1.1-.6.1-1.7 0-1 .1-1.8.1-2.4v-6.6c0-.3 0-.5-.1-.6 0-.1-.1-.2-.1-.3-.1 0-.1-.1-.2-.1s-.2-.1-.5-.1l-.6-.3zm3.3 4.9h1.1c1.3 0 2.2-.2 2.7-.7.5-.5.8-1.1.8-1.9 0-.5-.1-.9-.3-1.2-.2-.3-.5-.6-.9-.8-.4-.2-1-.3-1.7-.3-.6 0-1.1 0-1.5.1-.1.6-.1 1.5-.1 2.9v1.9zm0 6.9c.5.1 1 .2 1.5.2.9 0 1.6-.1 2.1-.4.5-.3.9-.7 1.1-1.2.2-.5.4-1.1.4-1.7 0-.9-.3-1.6-.8-2.2-.5-.5-1.6-.8-3.3-.8h-1v6.1zM78 89.8h4.2c2.1 0 3.9 0 5.5-.1v.1c-.2.6-.3 1.5-.3 2.8l-.1.1h-.5l-.1-.1v-.1c0-.5 0-1-.1-1.5-.4-.2-.9-.3-1.6-.3-.7-.1-1.2-.1-1.6-.1-.5 0-1.1 0-1.9.1v5.1c.7 0 1.3.1 1.9.1.6 0 1.1 0 1.4-.1.4 0 .6-.1.7-.1.1 0 .1-.1.1-.2s.1-.3.1-.6v-.6l.1-.1h.4l.1.1v4.2l-.1.1h-.4l-.1-.1-.1-.6c-.1-.4-.1-.7-.1-.8 0-.1-.1-.2-.2-.2-.1-.1-.3-.1-.7-.1-.4 0-.9-.1-1.5-.1h-1.7v5.5h1.7c1.5 0 2.5 0 2.9-.1.4 0 .7-.1 1.1-.3.1-.1.1-.5.3-1 .1-.5.2-.8.2-1l.1-.1h.5l.1.1c-.1.3-.1.7-.2 1.4s-.1 1.2-.1 1.7v.1c-1.2 0-2.8-.1-4.7-.1h-2.6c-.6 0-1.2 0-1.9.1l-.1-.1v-.3l.1-.1c.4-.2.6-.3.6-.4.1 0 .1-.6.1-1.6s.1-1.8.1-2.4v-6.6c0-.3 0-.5-.1-.6 0-.1-.1-.2-.1-.3 0 0-.1-.1-.2-.1s-.2-.1-.5-.1l-.7-.1v-.5zM89.5 89.8h2.8c.7 0 1.7 0 2.9-.1h1c1.6 0 2.7.3 3.2.9.6.6.8 1.3.8 2 0 .5-.1 1-.4 1.5-.3.5-.7.9-1.2 1.3s-1.3.6-2.2.8c.2.2.5.7.9 1.3l1.3 1.8c.4.6.9 1.2 1.4 1.8.5.6.8 1 1 1.1.1.1.3.1.4.2h.5l.1.1v.4l-.1.1c-.3 0-.7-.1-1.1-.1-.4 0-.9 0-1.5.1-.4-.5-1.1-1.4-2-2.7-1.1-1.5-2.2-2.9-3.3-4.2l.1-.3h.8c1.1 0 1.9-.3 2.5-.8.6-.5.9-1.2.9-2.2 0-.8-.3-1.4-.8-1.9-.6-.4-1.3-.6-2.2-.6-.7 0-1.3.1-1.9.3-.1.1-.1 1.3-.1 3.5v6.1c0 .7 0 1.2.1 1.4s.1.3.1.4c.1.1.2.1.3.2.2 0 .6.1 1.2.1l.1.1v.5l-.1.1s-.6 0-1.7-.1h-1c-.2 0-1.1 0-2.7.1l-.1-.1v-.5l.1-.1c.6 0 1-.1 1.2-.1.2 0 .3-.1.4-.1.1-.1.1-.2.2-.4 0-.2.1-.6.1-1.3v-8.1c0-.7 0-1.2-.1-1.4 0-.2-.1-.3-.1-.4-.1-.1-.2-.1-.3-.2-.2 0-.6-.1-1.2-.1l-.1-.1v-.3zM102.7 99.7l.5-.1.1.1c0 .8.1 1.3.1 1.5.1.2.2.4.5.6.3.2.7.4 1.1.5.5.1.9.2 1.4.2.7 0 1.3-.1 1.8-.4.5-.2.9-.6 1.2-1.1.3-.5.4-1 .4-1.6 0-.4-.1-.8-.2-1.1-.1-.3-.3-.6-.6-.7-.3-.2-.5-.3-.9-.4-.3-.1-.8-.2-1.5-.3-.6-.1-1.1-.2-1.5-.3-.4-.1-.7-.2-1.1-.4-.4-.2-.6-.4-.9-.6-.2-.3-.4-.6-.6-1s-.2-.8-.2-1.2c0-1.2.4-2.1 1.2-2.9.8-.7 1.9-1.1 3.3-1.1.5 0 1.1.1 1.8.2.6.1 1.2.3 1.8.6l.1.1c-.1.6-.2 1.4-.3 2.5l-.1.1h-.5l-.1-.1c0-.7 0-1.2-.1-1.4 0-.2-.3-.4-.9-.7-.5-.3-1.1-.4-1.8-.4-.5 0-1 .1-1.5.3-.5.2-.8.5-1.1 1-.2.5-.4.9-.4 1.4 0 .4.1.7.2 1 .1.3.3.5.6.7.2.2.5.3.8.4s.9.2 1.7.3c1.1.2 1.9.3 2.4.6.5.2.9.6 1.2 1.1.3.5.5 1.1.5 1.7 0 1.3-.5 2.4-1.6 3.3-1.1.9-2.4 1.3-3.9 1.3-1.3 0-2.4-.2-3.4-.7l-.1-.1c.5-.5.6-1.4.6-2.9z"></path>
<g>
<path class="st0" d="m70.8 132.6-2.4 3.3 8.4 11c2.3-1.9-.4-6.1-.7-6.7-.4-.6-5.3-7.6-5.3-7.6zM61.8 125.8c.3 0 .5 0 2.9 4.8l2-2s-2.4-1.4-3.4-4.5-1.5-4.8-3.9-4.9c-2.3-.1-3.8 2.2-3.7 4 .2 1.9 1.4 3.8 3.3 3.9 2.1.2 2.5-1.2 2.8-1.3zm-4.3-2.6c0-1.1.8-2 1.8-2s1.8.9 1.8 2-.8 2-1.8 2-1.8-.9-1.8-2z"></path>
<path class="st0" d="M78.6 120.4c-1.2-1.7-4.7-1.5-5.6 1.6-.9 3.1-3.1 5.8-3.4 6.1-.8.6-2.2 1.5-2.9 2.1-.6.6-3.8 4.5-7.1 9.6s-1 7.2-1 7.2 8.4-11 10.3-13.5c1.9-2.5 3.6-6.3 4.1-7.2s.9-.2 1.2.2c.4.4 2.8 1.8 4.3-.4s1.3-4 .1-5.7zm-10.8 12.8c-.6 0-1-.5-1-1.1 0-.6.5-1.1 1-1.1.6 0 1 .5 1 1.1 0 .7-.4 1.1-1 1.1zm8.4-8c-1 0-1.8-.9-1.8-2s.8-2 1.8-2 1.8.9 1.8 2c.1 1.1-.8 2-1.8 2z"></path>
</g>
<g>
<path class="st0" d="M135 68.5c0-36-29.6-65.3-65.9-65.3-36.4 0-65.9 29.3-65.9 65.3 0 33.7 25.9 61.5 59 64.9.6-.8 1-1.4 1.1-1.5.2-.2-.1-.7-.1-.7L62 129C31.4 125.5 7.5 99.7 7.5 68.5c0-33.6 27.6-60.9 61.6-60.9s61.6 27.3 61.6 60.9c0 32.2-25.4 58.7-57.5 60.8-.4.7-1.3 2.5-1.3 2.5l1.3 1.9c34.5-2.2 61.8-30.6 61.8-65.2z"></path>
<path class="st0" d="M137.9 68.5C137.9 31 107.1.4 69.1.4S.3 30.9.3 68.5c0 34.6 26.2 63.2 60 67.5.3-.5.7-1 1.1-1.5C28 130.7 2 102.5 2 68.5 2 31.8 32.1 2 69.1 2s67.1 29.8 67.1 66.4c0 35-27.5 63.8-62.3 66.3l1.1 1.6c35.2-3 62.9-32.3 62.9-67.8z"></path>
</g>
</svg>
